mtllib clay_pot.mtl
o Default
v 0 0.0000315363249683287 0.5000500082969666
v 0.5 0.0001315363188041374 1.0000499486923218
v 1 0.0001315363188041374 0.5000500082969666
v 0.5 0.0000315363249683287 0.000049997499445453286
v 0 0.0000315363249683287 0.5000500082969666
v 1.9812636384617223e-15 1 1
v 1.759219033536691e-15 1 0
v 0.5 0.0001315363188041374 1.0000499486923218
v 0.5 0.0000315363249683287 0.000049997499445453286
v 1.759219033536691e-15 1 0
v 1 1 1.7763568394002505e-15
v 0 0.0000315363249683287 0.5000500082969666
v 1 0.0001315363188041374 0.5000500082969666
v 1 1 1.7763568394002505e-15
v 1 1 1
v 0.5 0.0000315363249683287 0.000049997499445453286
v 0.5 0.0001315363188041374 1.0000499486923218
v 1 1 1
v 1.9812636384617223e-15 1 1
v 1 0.0001315363188041374 0.5000500082969666
v 1.9812636384617223e-15 1 1
v 0.5 0.125 0.5
v 0.5 0.125 0.5
v 1 1 1
v 0.5 0.125 0.5
v 0.5 0.125 0.5
v 1.759219033536691e-15 1 0
v 1 1 1.7763568394002505e-15
v 1.759219033536691e-15 1 0
v 0.5 0.125 0.5
v 0.5 0.125 0.5
v 1.9812636384617223e-15 1 1
v 0.5 0.125 0.5
v 0.5 0.125 0.5
v 1 1 1.7763568394002505e-15
v 0.9998999834060669 1 1
vt 0.25 0.5
vt 0.5 0.75
vt 0.25 0.75
vt 0.25 0.5
vt 0.5 0.5
vt 0.5 0.75
vt 0 0.5
vt 0.25 0.75
vt 0 0.75
vt 0 0.5
vt 0.25 0.5
vt 0.25 0.75
vt 0.25 0.25
vt 0.5 0.5
vt 0.25 0.5
vt 0.25 0.25
vt 0.5 0.25
vt 0.5 0.5
vt 0.5 0.5
vt 0.75 0.75
vt 0.5 0.75
vt 0.5 0.5
vt 0.75 0.5
vt 0.75 0.75
vt 0.25 0.75
vt 0.5 1
vt 0.25 1
vt 0.25 0.75
vt 0.5 0.75
vt 0.5 1
vt 0.75 0.25
vt 1 0.5
vt 0.75 0.5
vt 0.75 0.25
vt 1 0.25
vt 1 0.5
vt 0.75 0.5
vt 1 0.5
vt 0.75 0.25
vt 1 0.5
vt 1 0.25
vt 0.75 0.25
vt 0.5 0.25
vt 0.75 0.5
vt 0.5 0.5
vt 0.5 0.25
vt 0.75 0.25
vt 0.75 0.5
vt 0.5 0.5
vt 0.75 0.5
vt 0.5 0.25
vt 0.75 0.5
vt 0.75 0.25
vt 0.5 0.25
vn 0.00009999999283580878 -0.9999999900000002 0.0001000000047567383
vn 0.00009999999283580878 -0.9999999900000002 0.0001000000047567383
vn 0.00009999999283580878 -0.9999999900000002 0.0001000000047567383
vn 0.00009999999283580892 -0.9999999900000015 0.0000999999906763049
vn 0.00009999999283580892 -0.9999999900000015 0.0000999999906763049
vn 0.00009999999283580892 -0.9999999900000015 0.0000999999906763049
vn -0.9999999999999999 1.8703114228205713e-15 2.2204460492503128e-16
vn -0.9999999999999999 1.8703114228205713e-15 2.2204460492503128e-16
vn -0.9999999999999999 1.8703114228205713e-15 2.2204460492503128e-16
vn -0.6666346583678702 -0.33332787304203887 0.6667014034153699
vn -0.6666346583678702 -0.33332787304203887 0.6667014034153699
vn -0.6666346583678702 -0.33332787304203887 0.6667014034153699
vn 1.7763568371798894e-15 -0.00004999907616918473 -0.9999999987500461
vn 1.7763568371798894e-15 -0.00004999907616918473 -0.9999999987500461
vn 1.7763568371798894e-15 -0.00004999907616918473 -0.9999999987500461
vn -0.666656929269604 -0.3333723091510093 -0.6666569148731197
vn -0.666656929269604 -0.3333723091510093 -0.6666569148731197
vn -0.666656929269604 -0.3333723091510093 -0.6666569148731197
vn 1 0 0
vn 1 0 0
vn 1 0 0
vn 0.6666865627295212 -0.3333871244960841 -0.666619870913048
vn 0.6666865627295212 -0.3333871244960841 -0.666619870913048
vn 0.6666865627295212 -0.3333871244960841 -0.666619870913048
vn 0 0.00004995526319087818 0.999999998752236
vn 0 0.00004995526319087818 0.999999998752236
vn 0 0.00004995526319087818 0.999999998752236
vn 0.6666642873888593 -0.33334269135160804 0.6666643668614448
vn 0.6666642873888593 -0.33334269135160804 0.6666643668614448
vn 0.6666642873888593 -0.33334269135160804 0.6666643668614448
vn 0 0 0
vn 0 0 0
vn 0 0 0
vn 0 0.4961389383568338 -0.8682431421244592
vn 0 0.4961389383568338 -0.8682431421244592
vn 0 0.4961389383568338 -0.8682431421244592
vn 0 0 0
vn 0 0 0
vn 0 0 0
vn -1.5423096437751501e-15 0.49613893835683315 0.8682431421244595
vn -1.5423096437751501e-15 0.49613893835683315 0.8682431421244595
vn -1.5423096437751501e-15 0.49613893835683315 0.8682431421244595
vn 0 0 0
vn 0 0 0
vn 0 0 0
vn 0.8682431421244601 0.4961389383568324 -1.9278870547189355e-16
vn 0.8682431421244601 0.4961389383568324 -1.9278870547189355e-16
vn 0.8682431421244601 0.4961389383568324 -1.9278870547189355e-16
vn 0 0 0
vn 0 0 0
vn 0 0 0
vn -0.8682645142562627 0.49610152765537935 -0.00008684085934889385
vn -0.8682645142562627 0.49610152765537935 -0.00008684085934889385
vn -0.8682645142562627 0.49610152765537935 -0.00008684085934889385
g Scene
usemtl 1
f 1/1/1 3/2/2 2/3/3
f 1/4/4 4/5/5 3/6/6
f 5/7/7 6/8/8 7/9/9
f 5/10/10 8/11/11 6/12/12
f 9/13/13 10/14/14 11/15/15
f 9/16/16 12/17/17 10/18/18
f 13/19/19 14/20/20 15/21/21
f 13/22/22 16/23/23 14/24/24
f 17/25/25 18/26/26 19/27/27
f 17/28/28 20/29/29 18/30/30
f 21/31/31 22/32/32 23/33/33
f 21/34/34 24/35/35 22/36/36
f 25/37/37 26/38/38 27/39/39
f 26/40/40 28/41/41 27/42/42
f 29/43/43 30/44/44 31/45/45
f 29/46/46 32/47/47 30/48/48
f 33/49/49 34/50/50 35/51/51
f 34/52/52 36/53/53 35/54/54
